<svg fill="#24BE13" id="Слой_1" data-name="Слой 1" xmlns="http://www.w3.org/2000/svg" viewBox="0 0 132.54 134.96"><defs><style>.cls-1{fill-rule:evenodd}</style></defs><g id="Слой_1-2" data-name="Слой_1"><g id="_2782599338528" data-name="2782599338528"><path class="cls-1" d="M66.21 118.17c0 3.12 2.76 6.54 5.82 6.54 6 0 11.77-1.75 17-3.84a44.53 44.53 0 0 0 10.55-6.41c.69-.59.64-.9 1.53-1.14v25.2H137V98.06c0-6.61-6.24-13.33-12.84-13.33h-9.93a12.63 12.63 0 0 0-7.41 2.77c-6.16 4.46-6.7 7-11 11.83L93.41 102c-11.64 10.19-19.56 8-23.4 9.79a7.15 7.15 0 0 0-3.8 6.38ZM4.42 98.06v40.46h35.86v-25.44l4.8 3.69a43.15 43.15 0 0 0 11.83 5.61A33.9 33.9 0 0 0 64 124c-.31-1.16-3.32-5.22-.73-10.42.65-1.31 1.33-2 1.94-3.15a26.6 26.6 0 0 1-6.13-1.62c-15.44-6.07-14.9-15.34-25.8-22.17a11.69 11.69 0 0 0-6.11-1.89c-5.43 0-11.06-.7-15.11 1.37s-7.67 7-7.67 12ZM27 12v20.63c0 4.18 3.87 8.48 7.75 8.48h7v10.67c0 .67.64 1.33 1.71 0l6-7.34c3.56-4.36 1.22-3.34 11.93-3.34-.62-1.3-.24-12.69-.24-15.26 0-3.24-.08-4.46 1.25-6.5a6.83 6.83 0 0 1 5.05-3h15.24V12c0-4.22-3.72-8.48-8-8.48H35c-4.36.04-8 4.22-8 8.48Z" transform="translate(-4.42 -3.56)"/><path class="cls-1" d="M64.76 27.55v15a9.37 9.37 0 0 0 1 4.6c2.57 4.48 7.32 3.39 14 3.39h5.58c1.38 0 1.64-.21 2.38.53l5.83 7.25c.59.58-.12.37 1 .46.52-.92.24-6.77.24-8.24 6.61 0 16.24 1.59 16.24-6.78V26.33a6.58 6.58 0 0 0-6.55-6.78h-32.7c-4.78 0-7.02 3.22-7.02 8ZM119 81.1a16.54 16.54 0 0 0 8.49-2.66c10.68-7.75 7.79-22.85-1.94-27.39a14.89 14.89 0 0 0-13 .07 15.86 15.86 0 0 0-7.49 8C100.67 70.09 108.91 81.1 119 81.1ZM7.09 64.62C7.09 79.14 22.82 86.5 33 76.43a15.84 15.84 0 0 0 3.43-17.11A16 16 0 0 0 29 51.21C18.49 45.85 7.09 54.49 7.09 64.62Z" transform="translate(-4.42 -3.56)"/></g></g></svg>