<svg fill="#2029C5" data-name="Слой 1" xmlns="http://www.w3.org/2000/svg" viewBox="0 0 37.5 37.5"><path d="M35.42 26.04a23.38 23.38 0 0 1-7.44-1.19 2.17 2.17 0 0 0-1.13 0 2.22 2.22 0 0 0-1 .54l-4.58 4.59A31.41 31.41 0 0 1 7.54 16.21l4.59-4.61a2 2 0 0 0 .56-1 2 2 0 0 0 0-1.12 23.5 23.5 0 0 1-1.19-7.44A2.09 2.09 0 0 0 9.42-.04H2.08A2.09 2.09 0 0 0 0 2.08 35.41 35.41 0 0 0 35.42 37.5a2.09 2.09 0 0 0 2.08-2.08v-7.29a2.09 2.09 0 0 0-2.08-2.09Zm-2.09-7.29h4.17A18.74 18.74 0 0 0 18.75 0v4.17a14.57 14.57 0 0 1 14.58 14.58Zm-8.33 0h4.17A10.43 10.43 0 0 0 18.75 8.33v4.17A6.24 6.24 0 0 1 25 18.75Z"/></svg>