<svg id="Слой_1" data-name="Слой 1" xmlns="http://www.w3.org/2000/svg" viewBox="0 0 127.32 127.58"><defs><style>.cls-1{fill-rule:evenodd}</style></defs><g id="Слой_1-2" data-name="Слой_1"><g id="_2782687601248" data-name="2782687601248"><path class="cls-1" d="m29.47 61.43 6.41 2.91c1.62 0 4.34-2.15 6.59-3.31a47.86 47.86 0 0 1 6.63-2.7 56.58 56.58 0 0 1 11.41-2.56C73.83 53.62 89 57.6 98.39 63.89a32.21 32.21 0 0 1 5.15 4.16c.84.85 1.51 1.47 2.34 2.33a15.12 15.12 0 0 1 1.05 1.28c7.9 10 8.2 21.32 1.14 31.65l-4.24 5.08c-1.3 1.25-1.14 1.14-1.25 3.42l-.28 17.49h-5.53l-1.92-9.45c-1.55-6.35-4.68-1.56-16 .54l-10.61 1c-3 0-5.63-.47-8.45-.58-3.3-.14-4.41-1.17-8.74-1.17-1 0-1.44 1.17-1.86 1.94l-4 7.68h-6.11V120c0-5.78-1-5.42-4.64-7.58l-15.29-9.48c-8.48-5.68-6.87-3.94-6.87-13.84 0-2.68 5.51-1.84 7.75-2.44 4.88-1.31 2.41-7.6 9.94-16 2.45-2.72 2.86-3.79 1-6.62l-1.45-2.62Zm74.58 73.4h-9c-2.32-.29-3-1.33-3.63-4.58a66 66 0 0 1-1.38-7.07c-1.52.35-2.94.89-4.49 1.34-7.12 2-13.66 2.15-21.15 2.15-4.44 0-8.79-1.16-11.36-1.16a43.15 43.15 0 0 1-4.19 8 3 3 0 0 1-2.74 1.27h-9.2c-3.72-.25-3.4-1.49-3.4-6.7v-9.9c-1.34-.71-2.43-1.26-3.73-2.1s-2.4-1.56-3.56-2.26c-2.46-1.47-4.71-2.9-7.15-4.5C9.65 103.19 7.46 102 7 97.56v-9.63c0-1.86 2.27-4.32 3.61-5.13 2.3-1.38 4-1.27 7.46-1.27.6-1.25 1-2.93 1.5-4.33a40.72 40.72 0 0 1 5.85-9.88 5.88 5.88 0 0 1 .52-.65 18.72 18.72 0 0 1-2.79-6c-.9-4.19-.19-5.7 3.08-5.7 3.51 0 9 3.07 9.66 3.11s3.3-1.58 4.23-2a59.42 59.42 0 0 1 14.07-4.87c10.81-2.6 26.49-1.71 36.55 2.56A55 55 0 0 1 106.3 63a45.26 45.26 0 0 1 7.7 9l2-2.11a19.85 19.85 0 0 1-5-4.07c-10.43-13.62 6-20.77 11.14-12.59 2.65 4.25 1.39 7.89 1.39 12 1.71-.39 4.49-2.52 5.89-3.72a2.47 2.47 0 0 1 2-.94c2.62 0 2.9.72 2.91 3.09v.12c0 1.8-6.22 5.79-9.06 6.67-3.67 1.14-2.88-.27-5 2.89a17.5 17.5 0 0 1-3.74 3.84c2.11 9 1.75 4.23 1.75 14.27 0 7.07-5.19 14.66-9.29 19.55-1 1.17-1.19.6-1.22 2.56v18.11c.05 2.54-1.19 3.16-3.72 3.16Zm9.33-75.73c0-6.72 5-4 5-.29l-.38 5.82c-1.37-.74-4.62-3.71-4.62-5.53ZM67.92 39c-9.09 0-18.26-11.12-9.66-21.89 3.68-4.61 11.24-5.67 16.07-2.86C82 18.69 83.8 28.5 77.18 35.14A12.84 12.84 0 0 1 67.92 39ZM66.76 7.25h2.43A18.23 18.23 0 0 1 85 18.15a17.94 17.94 0 0 1 1.3 11.24 17.35 17.35 0 0 1-1.85 5.15 18.63 18.63 0 0 1-22.85 8.75 18.34 18.34 0 0 1-8-5.67c-3.8-4.25-4-8.6-4-14.06 0-4.07 3.39-9.25 5.6-11.29a18.76 18.76 0 0 1 11.56-5.02Z" transform="translate(-7.03 -7.25)"/><path class="cls-1" d="M44.62 67.25c0 6.58 7.53-1.45 23.6-1.45 12.09 0 18.06 4.07 21 4.07 1.88 0 4.73-3.5-.91-5.78-10.54-4.27-24.65-4.78-35.61-1.6a44.44 44.44 0 0 0-4.81 1.6c-1.4.55-3.27 1.21-3.27 3.16Zm18.06-43.98c0 1.92 1.48 2.15 2.62 2.91 0 5.08-.67 7.58 3.21 7.58.65 0 2.33-1.21 2.33-2V22.1c0-8.75-8.16-1.93-8.16 1.17ZM38.79 81.82a5.22 5.22 0 0 0-5.54-5.54c-4.6 0-6.65 5.78-3.58 9.12s9.12 1.19 9.12-3.58Z" transform="translate(-7.03 -7.25)"/></g></g></svg>