<svg id="Слой_1" data-name="Слой 1" xmlns="http://www.w3.org/2000/svg" viewBox="0 0 95.31 126.46"><defs><style>.cls-1{fill-rule:evenodd}</style></defs><g id="Слой_1-2" data-name="Слой_1"><g id="_2782692790640" data-name="2782692790640"><path class="cls-1" d="m75.13 107.45 1.3 1.38c.67.67 1.24 1.5 2 2.11l.63.66a.6.6 0 0 0 .08.08l3.7 3.92h.05l.17.17 3.74 4 .2.23c-.29.46-1.55 1.49-1.68 1.87-.36 0-.42-.23-.65-.47L69 104.86l-8.1-8.59-7.06-7.47c-.85-.9-.39-.41-.79-1.07L54.71 86a.56.56 0 0 1 .39.21l.12.14a.64.64 0 0 0 .12.14l1.87 2 .11.12 1.35 1.43a1.74 1.74 0 0 1 .14.12l5.77 6.16.13.12.2.2a24 24 0 0 0 1.94 2.08l.3.3 1.07 1.09.11.15 2.38 2.55c.16.16 0 0 .12.14l2.78 2.89a3 3 0 0 1 .21.25l1.23 1.29ZM57.39 83.09a13.55 13.55 0 0 0 1.25-1.26l.22-.21h.06l.78-.62c.19-.12.16-.14.34-.26a2.33 2.33 0 0 1 .45-.22 6.35 6.35 0 0 1 2.72-.58 5.73 5.73 0 0 1 1.77.2 2.88 2.88 0 0 1 .77.24l.39.21A8.86 8.86 0 0 1 68 82l.23.22c.4.38-.25-.28.08.07l.22.25c.16.15 0-.08.12.11l.08.11a2.73 2.73 0 0 0 .46.45l.52.57.08.07 1.11 1.18 1.21 1.3.78.86a11.44 11.44 0 0 0 1.3 1.42l10.87 11.52a2.94 2.94 0 0 0 .31.3 1.12 1.12 0 0 0 .18.13l1 1.1.47.48 1.22 1.33.26.24.07.07 1.26 1.36a9.69 9.69 0 0 1 1.73 1.86c.09.16.14.22.2.35l.37.81a1.76 1.76 0 0 1 .06.17 2.93 2.93 0 0 1 .22.65 8.27 8.27 0 0 1 .1 3l-.11.74a5.63 5.63 0 0 1-.5 1.25l-.2.44a10.74 10.74 0 0 1-.7 1.29l-.4.53c-.22.27-.85 1.14-1.18.93S68.14 94.69 66.61 93.07l-8.78-9.29c-.36-.37-.23-.23-.44-.69ZM114.15 73l-.26.61a7.56 7.56 0 0 1-.34.7l-.19.33c-.06.12 0 .07-.06.13a10.56 10.56 0 0 1-1.91 2.68 1.59 1.59 0 0 0-.13.13 6.9 6.9 0 0 1-1.39 1.24h-.08c-.05 0 0 0-.11.08a7.44 7.44 0 0 1-2.59 1.51l-3.55.76a1.3 1.3 0 0 0-.33.06c-.32.1-.11.06-.31.13a5.7 5.7 0 0 0-2.1.76 11.6 11.6 0 0 0-1.56 1.11l-.1.07-.14.12a22.55 22.55 0 0 1-2 2.1c-.29-.08-.2-.09-.42-.27l-.58-.58a1.36 1.36 0 0 0-.19-.14c-.13-.11 0 0-.1-.1l-.09-.16a1.37 1.37 0 0 0-.16-.18l-.59-.61-.09-.09-1-1-.43-.52c-.34-.28-.4-.52-.82-.82l-.1-.07a1.69 1.69 0 0 0-1-.34l-.6.19-.15.06-.2.14a1.84 1.84 0 0 0-.89.97v.72a1.79 1.79 0 0 0 .33.9 1.75 1.75 0 0 0 .28.33c1.31 1.35 2.68 2.72 3.92 4.13.27.32.16.41-.13.71L88.11 95a13.87 13.87 0 0 0-1.23 1.36l-.88-.87c-.17-.17.07.06-.16-.24l-.49-.43-.8-.87c-.19-.15-.16-.11-.23-.23l-.5-.5-.49-.55c-.1-.12-.05-.07-.15-.2l-.5-.49a14.31 14.31 0 0 0-1.07-1.14L80.8 90a1.54 1.54 0 0 0-.25-.26l-.2-.15-.11-.1c-.17-.21.11.12-.09-.15l-.39-.45a2.2 2.2 0 0 0-.27-.26l-1.39-1.5c-.24-.34-1.1-.79-.78-1.26l7.29-7.67c.36.1.68.59.94.86s.28.32.43.45c.53.46.54.36 1.13.54a1.4 1.4 0 0 0 1.33-.38l.19-.2a1.82 1.82 0 0 0 0-2.46c-.17-.3-.57-.61-.75-.88a1.16 1.16 0 0 0-.18-.22l-.4-.47c.46-.92 1.43-1.42 2-2.29l.2-.3a7.17 7.17 0 0 0 1-1.39l.5-1.11.61-2.92v-.34l.4-1.77a5 5 0 0 1 .38-1.19l.15-.33a5.27 5.27 0 0 1 .65-1.3l.52-.87a2.53 2.53 0 0 0 .13-.22l.07-.11a14.84 14.84 0 0 1 2.5-2.51c.22-.2.15-.1.36-.24a12.8 12.8 0 0 1 2.71-1.43 3.44 3.44 0 0 1 .37-.14l.85-.28h.19a3 3 0 0 0 .47 0 8 8 0 0 1 3.74 0c.17 0 .49 0 .79.09l3.41 1.58.29.19 1.39 1.21a11 11 0 0 1 1.88 2.26c.15.33.43.64.6 1.06l.2.42a1.28 1.28 0 0 1 .17.33l.28.62a.7.7 0 0 1 .08.2l.31 1a.58.58 0 0 1 0 .27v.26a15.58 15.58 0 0 1 .32 1.73 8.53 8.53 0 0 1 0 2.14l-.48 2.45v.15c0 .07-.09.32-.12.39Zm-12.74-38.11A3 3 0 0 1 100 35h-9l-.82.05h-.8a26.5 26.5 0 0 1-4.47-.11l-.41-.17a3.58 3.58 0 0 1-1.09-.62A5.26 5.26 0 0 1 82 32.2l-.27-.84c-.31-1-.17-5.36-.16-6.45s0-2.36 0-3.45V19.7c-.06-1.17 0-2.32 0-3.45a3.74 3.74 0 0 1 .12-1.73 19.58 19.58 0 0 1 1.63 1.65l.87.86 1.33 1.34c1.29 1.25 2.46 2.71 3.74 3.95l.91.89.7.74.25.25a.34.34 0 0 1 .06.06l.16.13.09.08.93 1L93.87 27l1.26 1.33 3.47 3.57a32 32 0 0 1 2.81 3ZM78 17.63v1.41c0 3.72 0 7.64.08 11.34v1.07a10.46 10.46 0 0 0 .24 1.36l.34.88v.05l1 1.69.16.19.37.46L83 38.13a7.42 7.42 0 0 0 1.7.6c1.24.24 16.29.1 19 .09.7 0 .53.58.53 1.11 0 1.09-.1 12.2 0 12.56a15.87 15.87 0 0 0-2 .1h-.25a2.82 2.82 0 0 0-1 .12c-.43.13-1 .11-1.56.32a13.45 13.45 0 0 0-3.13 1.21l-1.07.65a5.21 5.21 0 0 0-.89.65l-1 .75A14.35 14.35 0 0 0 91.87 58l-1.69 2.47a6.75 6.75 0 0 0-.35.62l-.91 2.1c0 .18-.06.25-.1.38L88.37 65v.38L88 67c-.1.39 0 .77-.18 1.19l-.9 2v.06a12.51 12.51 0 0 1-1.51 1.71l-.26.26-.13.12-2.74 2.89c-.19.18-.33.33-.51.53l-2.5 2.68c-.2.21-.32.3-.51.52l-1.72 1.83-.12.14a1.59 1.59 0 0 0-.13.13 5 5 0 0 0-.51.52 15.33 15.33 0 0 0-1.5 1.63l-.53-.42-.25.02-5.11-5a7.17 7.17 0 0 0-1.6-.89 10.12 10.12 0 0 0-2.31-.63 6.2 6.2 0 0 0-.65-.14 11 11 0 0 0-2.58.07l-.75.18h-.12l-4.32 2.23c-.64.44-5.1 5.3-5.76 6a12.89 12.89 0 0 0-2 2.26c-.12.22 0 0-.09.29a1.91 1.91 0 0 0 .15 1.51 6.76 6.76 0 0 0 .89 1.06l.25.28.25.26 1.22 1.34a.37.37 0 0 0 .11.1l4.59 4.84h.05l4.33 4.58.13.13 1.88 2h.05l.25.27 1.3 1.38 3.11 3.29 1.64 1.73 2.22 2.36.08.09a1.43 1.43 0 0 1 .13.13l.43.44 3.23 3.56a2.13 2.13 0 0 0 .26.26l.3.3a1.14 1.14 0 0 1 .12.14l4.62 4.9.13.13 1 1.06v.05l2.86 2.91.73.16a2 2 0 0 0 .61-.07 1.57 1.57 0 0 0 .61-.43c.17-.17.34-.36.51-.54l.5-.53c.08-.08.18-.2.26-.27l1.12-1.2.13-.13.3-.28.06-.07 1.42-1.41a.45.45 0 0 0 .12-.12c.08-.1 0-.09.08-.13l1.48-1.62.11-.1.77-.9.24-.27.7-1.12a1.68 1.68 0 0 1 .19-.34l.63-1.21a7.51 7.51 0 0 1 .31-.74l.12-.32c0-.08 0-.15.1-.32s.05 0 .08-.3l.32-4.07.21-1.36-1.18-3.23-1.19-1.67-.16-.19-.16-.19v-.05l-2-2.18L89.4 99l2.72-2.9.11-.12.7-.75.09-.1a.27.27 0 0 1 .08-.07l.14-.15.91-.95c.14-.15.06-.07.1-.12l1.31-1.38L96 92l2.37-2.52.07-.07.75-.79.45-.49.33-.36h.05l2-1.77c.16-.11.17-.14.28-.21l.62-.29c1.31-.39 1.08-.59 1.08 1.4V125l-.22 1.76a3.18 3.18 0 0 0-.11.33l-.4 1-.09.14-.32.42a.2.2 0 0 0-.06.07l-.31.42a3 3 0 0 1-1 .69l-.42.17a6.85 6.85 0 0 1-2.52.31H30.5l-1.24-.39-.33-.18a4.6 4.6 0 0 1-1.51-1.34l-.37-.64c-.63-1.3-.31-1.16-.53-2.14s0-6.18 0-7.86V71.33c-.14-2.38 0-9.86 0-12.62V25.02c0-2.29-.14-6.54.08-8.38a5.45 5.45 0 0 1 .4-1.58c.05-.12.09-.25.14-.39l1.2-1.88.95-.63c.19-.1 0 0 .18-.11a.75.75 0 0 1 .37-.13l.46-.11c.83-.26 16.17-.11 17.15-.11 9.86 0 19.72.1 29.57 0 .42 0 .8-.11.91.2s0 4.46 0 5.33v.43Zm-54.85 107 .8 4.51a5.67 5.67 0 0 0 .78 1.48c.11.17.15.28.26.43a7.68 7.68 0 0 0 1.31 1.36 8.3 8.3 0 0 0 1.63.94l.58.25h.08l2.13.49a26.51 26.51 0 0 0 5.1.06c1.24-.1 7.78 0 9.06 0 18.23 0 36.71.09 54.88 0h.28a7.07 7.07 0 0 0 2.17-.48l.4-.13.15-.1 2.67-1.89c.21-.16 0 0 .16-.15l.55-.7a.41.41 0 0 0 .07-.12l1.17-2.26.25-1.21a25.74 25.74 0 0 0 .21-2.94c.05-.4.1-.27.05-.59a4.47 4.47 0 0 1-.11-.93V84.51a.66.66 0 0 1 .35-.47l.76-.26c.21-.07-.06 0 .12 0l.14-.08.11-.06.19-.07.8-.43.47-.28c.24-.14.36-.23.58-.37l3.39-3 1.09-1.5a9.83 9.83 0 0 0 .7-1.33l1.18-2.86c.07-.16 0 0 .07-.13v-.08c.09-.34 0-.26.1-.67l.31-1.3a4 4 0 0 0 .1-1.32v-3.69l-.25-1.33c0-.17-.08-.58-.11-.67l-.14-.58c0-.3-.38-1-.49-1.41-.07-.22 0 .07 0-.14l-1.07-2.11-.07-.12-1.11-1.73a10 10 0 0 0-1.45-1.66l-2.7-2a2.77 2.77 0 0 0-.31-.21l-2.14-1c-.43-.11-.23-.08-.56-.31V41.11c0-1.14.26-4.07-.23-5l-.18-.35c0-.08-.12-.16-.18-.25L105.79 34h-.05l-.62-.59-.5-.54-2.16-2.25a2.78 2.78 0 0 0-.24-.28l-.92-.89c-.19-.18-.33-.2-.36-.51l-.39-.21a28.21 28.21 0 0 1-2.06-2.17l-10-10.37h-.05l-.5-.53c-1.23-1-3.87-4.18-5.33-5.56-.22-.2-.28-.39-.6-.43 0-.39-.13-.25-.31-.47a1.78 1.78 0 0 0-.57-.59l-.68-.44c-.49-.2-30.13-.07-31.18-.07H31.11L29 8.28a6.46 6.46 0 0 0-1.1.37l-.67.43a1.76 1.76 0 0 0-.34.25 5 5 0 0 0-.8.67c-.19.18-.11.08-.3.22a3.22 3.22 0 0 0-.28.24l-.18.23-.23.31a7.72 7.72 0 0 0-.92 1.44 1.27 1.27 0 0 1-.07.12l-.67 1.55v.08l-.3 2c-.19 1.09 0 92.93 0 107.79v.64Z" transform="translate(-23.04 -7.81)"/><path class="cls-1" d="M32.36 111.64v.38a2.24 2.24 0 0 0 0 .26v1.56l.08 4.71a10.86 10.86 0 0 0 .42 1.51l.71 1.28a2.58 2.58 0 0 0 .24.37l.28.32.35.35a3.88 3.88 0 0 0 .56.62l.34.26a6.9 6.9 0 0 0 1.49.74l1.92.44h12.23c2-.08 5.13 0 7.21 0h7c1 0 6 .13 6.63-.07s1.08-.38 1.35-1v-.1a2.15 2.15 0 0 0-.09-1.69l-.48-.53c-.31-.31-.22-.28-.62-.32a29.35 29.35 0 0 0-3.37 0c-1.28 0-29.33.11-30 0l-.72-.18a4.52 4.52 0 0 1-.7-.34 1.67 1.67 0 0 1-.51-.61 6.44 6.44 0 0 1-.64-1.62l-.04-5.82c0-1.25 0-5.39.07-6.16l.14-.43a2.71 2.71 0 0 1 1.3-1.66l.66-.32c.46-.18 1.11-.05 1.48-.17.21-.06-.08 0 .21-.05h11.27c.73 0 1.45.12 2-.51a1.11 1.11 0 0 0 .11-.16 1.46 1.46 0 0 1 .09-.15 2.08 2.08 0 0 0 .15-1.53 1.5 1.5 0 0 0-.52-.88c-.58-.57-.52-.3-1.13-.49h-8.6l-5.51.22-1 .34a7.31 7.31 0 0 0-1.12.56 4.93 4.93 0 0 0-1.55 1.5c-.14.29-.57.66-.72 1l-.53 1.6a1 1 0 0 1 0 .17c-.4 1.35-.11 3.74-.17 5.23v1.33Zm.17-91.7a2 2 0 0 0 .38 1.21 2 2 0 0 0 1.71.69c10.6-.08 21.53 0 32.2 0a2.86 2.86 0 0 0 1.45-.16c.51-.14.32 0 .66-.38a2 2 0 0 0-.67-3.17A22.09 22.09 0 0 0 65 18c-1.17-.08-6.61 0-7.7 0-1.59 0-5.44.08-7 0-1.82-.08-5.54 0-7.48 0h-7.41c-.72 0-2.11-.19-2.57.74l-.15.31a4.42 4.42 0 0 0-.16.89Zm35.03 9.52-34.05.14a1.75 1.75 0 0 0-.71.76l-.06.13a2.23 2.23 0 0 0-.18 1.1l.25.79a1.74 1.74 0 0 0 1.61.82h33.07a1.67 1.67 0 0 0 1.56-.69c.21-.22.17-.12.24-.36v-.23a2.26 2.26 0 0 0 0-1.41v-.09a1.63 1.63 0 0 0-.63-.74l-.08-.06a.72.72 0 0 0-.25-.1Z" transform="translate(-23.04 -7.81)"/><path class="cls-1" d="M47.23 113.77c1.85 0 9.73-.09 10.9 0l4-.07h.26c.24-.09.32-.22.55-.48l.27-.4v-.25c.16-1 .2-.27 0-1-.08-.38 0-.42-.24-.67-.69-.81-.73-.65-1.75-.79a7.33 7.33 0 0 0-1.24 0h-9.7c-2.26.07-5.26-.08-7.44 0h-3.56a1.77 1.77 0 0 0-1.61 1.13v.09a2.26 2.26 0 0 0 .12 1.69l.1.14c.32.4.5.62.85.65l8.15.08c.16-.07.17-.12.34-.12Z" transform="translate(-23.04 -7.81)"/></g></g></svg>