<svg fill="#24BE13" xmlns="http://www.w3.org/2000/svg" viewBox="0 0 50 50" style="enable-background:new 0 0 50 50" xml:space="preserve"><path d="M15 15c0-2.7 1.1-5.2 2.9-7.1C19.8 6.1 22.3 5 25 5s5.2 1.1 7.1 2.9C33.9 9.8 35 12.3 35 15s-1.1 5.2-2.9 7.1C30.2 23.9 27.7 25 25 25s-5.2-1.1-7.1-2.9C16.1 20.2 15 17.7 15 15zm13.1 12.5H12.5c-.7 0-1.3.1-1.9.4-.6.2-1.2.6-1.6 1.1-.5.5-.8 1-1.1 1.6-.3.6-.4 1.3-.4 1.9 0 4.2 2.1 7.4 5.3 9.5 2 1.3 4.5 2.2 7.2 2.6-.1-1 0-1.9.3-2.9.3-.9.8-1.8 1.5-2.4l5.8-5.8c-.4-2-.2-4.1.5-6zm11.6-4.9c.9.1 1.2 1.2.5 1.9l-2.4 2.4c-.7.7-1.1 1.7-1.1 2.7s.4 2 1.1 2.7c.7.7 1.7 1.1 2.7 1.1 1 0 2-.4 2.7-1.1l2.4-2.4c.7-.7 1.8-.4 1.9.5.2 1.5 0 3-.6 4.4-.6 1.4-1.5 2.6-2.7 3.5-1.2.9-2.6 1.5-4 1.8-1.5.2-3 .1-4.4-.4L29 46.5c-.4.3-.8.6-1.2.8-.5.2-.9.3-1.4.3s-1-.1-1.4-.3c-.5-.2-.9-.5-1.2-.8-.4-.4-.6-.8-.8-1.2-.2-.5-.3-.9-.3-1.4s.1-1 .3-1.4c.2-.5.5-.9.8-1.2l6.8-6.8c-.5-1.4-.6-2.9-.4-4.4.2-1.5.9-2.9 1.8-4s2.1-2.1 3.5-2.7c1.2-.8 2.7-1 4.2-.8z"/></svg>