<svg id="Слой_1" data-name="Слой 1" xmlns="http://www.w3.org/2000/svg" viewBox="0 0 132.02 132.03"><defs><style>.cls-1{fill-rule:evenodd}</style></defs><g id="Слой_1-2" data-name="Слой_1"><g id="_2782690960032" data-name="2782690960032"><path class="cls-1" d="M11.46 71.43c-.11-.55.45-5.88.57-6.81a56.79 56.79 0 0 1 2.79-12c2.8-8.39 6.1-13.56 11.26-20.09l1.7-2a61 61 0 0 1 29.5-16.91c4.22-1 12.14-2.27 16.52-1.68 6.92.94 8.25.82 15.28 3.17 2 .64 3.5 1.28 5.31 2.06 17.18 7.33 29.19 22.39 33.67 40.4 1.06 4.26 2.27 12.18 1.68 16.53-.13 1-.25 2.38-.38 3.31a62.75 62.75 0 0 1-10.09 26.79 64.06 64.06 0 0 1-6.66 8.24 56.16 56.16 0 0 1-8.09 6.67c-.45.3-.61.48-1.08.76L95 124.56c-1.76.76-3.34 1.5-5.24 2.14-4.11 1.41-10.76 3.1-15.15 3.3-5.22.22-4.25.47-10.32-.28a61.55 61.55 0 0 1-25.66-9.38c-.43-.27-.71-.39-1.14-.7-7.93-5.8-11.12-8.82-16.38-17a57.43 57.43 0 0 1-4-7.25c-2.63-5.9-5-13.77-5.39-20.44l-.3-3.54ZM4.7 67c0 8.89-.32 12.8 2 21.7a65.74 65.74 0 0 0 2.95 8.58 63.67 63.67 0 0 0 7.05 12.46c.57.77 1.08 1.43 1.68 2.17L21 115a9.32 9.32 0 0 1 1 1 57.48 57.48 0 0 0 5.93 5.75 58.69 58.69 0 0 0 11.46 7.9A23.28 23.28 0 0 0 42 131c1.93.79 3.29 1.54 5.41 2.27 11 3.81 15.71 3.79 27.1 3.79 6.63 0 13.34-1.68 19.46-3.75s15-7.22 19.53-11.51c.4-.38.61-.46 1-.84s.62-.64 1-1 .66-.51 1.08-.92l1-1 7.21-8.32a63 63 0 0 0 7-12.36c.4-.93.79-1.81 1.1-2.74s.69-1.78 1-2.85c3.11-10.69 2.8-13.86 2.8-24.77 0-7.72-2.14-15.22-4.85-22.05l-1.24-2.75a66.18 66.18 0 0 0-5.8-9.72l-4.28-5.25a9.4 9.4 0 0 1-1-1C117.79 23.91 112 19 109.37 17c-1.51-1.11-3-2.09-4.63-3.06C96.11 8.78 84.84 5 74.77 5c-8.97 0-12.55-.3-21.58 2a63.31 63.31 0 0 0-21.07 10l-5.26 4.28a63.49 63.49 0 0 0-4.95 4.88l-3.58 4.1a62.73 62.73 0 0 0-7.48 11.88c-.23.45-.35.75-.57 1.27C7.12 50.73 4.7 58.49 4.7 67Z" transform="translate(-4.68 -5.02)"/><path class="cls-1" d="m107.34 70.51-4.76 2.61c-.4.21-.55.34-1 .57l-2 1.07-23.27 12.81-14.38-7.75c-.84-.5-1.6-.8-2.4-1.29l-1.81-1a1 1 0 0 1-.28-.18 4.26 4.26 0 0 1-.34-.28c-.57.38-1.17.87-1.74 1.33L29.13 98.94c.2.75 2.52 3.41 3.14 4.24a4.68 4.68 0 0 0 1.16 1.29l22-17.19c3.27-2.44.91-2.3 8.64 1.62l6.39 3.44c1.64 1 3.43 1.79 5.07 2.77 1.17.71.79.35 2.47-.47l12.68-7c3.73-2.22 8.89-4.69 12.6-6.92 1.78-1.06 6.23-3.32 7.6-4.24.32.62.57 1.1.93 1.69s.59 1.1.94 1.67l1.44 2.56c.33.57.1.54.68.69a9.65 9.65 0 0 1 .43-1.87l3.57-13.5c-1.55-.12-11.88-3.2-14.6-3.88-1-.25-.42.41.4 1.8a47.67 47.67 0 0 1 2.67 4.85Z" transform="translate(-4.68 -5.02)"/><path class="cls-1" d="M73.54 62.37v12.91c0 3.22 5.07 3.53 5.07-.47V71c0-.74-.14-1.06-.14-1.54a5.74 5.74 0 0 0 0-1.57 19.74 19.74 0 0 1 .12-3.49c0-2.56-.34-3.76 2.14-5.08v21.5c.13.69.39.38 1.44-.25.61-.37 1.21-.65 1.79-1s1.14-.6 1.69-.92c2-1.17 7.38-3.85 8.75-4.77V59.29c2.45 1.3 2.15 2.91 2.15 5.53v7.84c.7-.16 3.19-1.69 4-2.1.59-.28 1-.3 1-1.12 0-5 .75-9.66-2.5-12.88a8.28 8.28 0 0 0-6-2.65H81.84a8.75 8.75 0 0 0-5.78 2.52 8.87 8.87 0 0 0-2.52 5.94ZM28.21 73.74v9.37a1.79 1.79 0 0 0 1.54 1.39c3.21 0 1.53-4 1.93-7.3.1-.82-.79-4.63 1.45-5.15 0 6.79-.16 13.1-.16 19.82.71-.06.9-.47 1.69-1.07.25-.19.54-.39.79-.6a3.45 3.45 0 0 1 .9-.63v-3.4c0-1.12-.06-.8.63-.79l2.15-.12v1.85c.91-.21 2.39-1.78 3.38-2.31V72.05c1.76.41 1.54 2.61 1.54 4.76v6.46c.67-.06 1.85-1.21 2.48-1.67 0 0 .44-.32.44-.33.22-.21.3 0 .3-.46v-7.07A5.69 5.69 0 0 0 42 68.36h-8.72c-1.65 0-3.86 1.81-4.48 3.35a6 6 0 0 0-.59 2Zm21.05-3.08L49.4 79c0 .21.1.2.56-.12.26-.19.34-.27.62-.48 3.54-2.67 2.37-.88 2.52-8.55a2.67 2.67 0 0 1 1.9-2.57V75c.53-.15.28-.08.66-.42l2-1.58 8.2 5V67.28c2.25.53 1.84 3.55 1.84 5.07v6.92l3.38 2c1-1.8.26-6.53.41-8.53.07-.95-.11-1.57-.1-3a6.6 6.6 0 0 0-6.46-6.61h-9.06a6.08 6.08 0 0 0-4.52 1.94 7 7 0 0 0-2.09 5.59Zm31.96-25.35c0 3.31 1.1 5.16 3.94 6.51 3 1.45 6.68-.19 8.21-3.28 1.3-2.63.45-5.13-1.23-7.23-1.83-2.28-6.22-2.84-9-.2a6.77 6.77 0 0 0-1.92 4.2ZM55.25 56.53a5.43 5.43 0 0 0 1.45 3.62l1.52 1.09A4.83 4.83 0 0 0 64 60.18a5 5 0 0 0 .05-7.18c-3.65-3.72-8.8-.6-8.8 3.53Zm-21.82 5.99a4.43 4.43 0 1 0 7.65-2.73c-1.18-1.4-2.32-1.42-3.8-1.42-1.82 0-3.85 2.3-3.85 4.15Z" transform="translate(-4.68 -5.02)"/></g></g></svg>