<svg data-name="Слой 1" xmlns="http://www.w3.org/2000/svg" viewBox="0 0 46.88 50"><path d="M40.62 24.24a14.68 14.68 0 0 1 2.61 2.27 14.39 14.39 0 0 1 2 2.79 12.52 12.52 0 0 1 1.22 3.2 17.14 17.14 0 0 1 .42 3.44 13.86 13.86 0 0 1-4.13 9.93 14.56 14.56 0 0 1-4.46 3 14.1 14.1 0 0 1-9.77.46 13.59 13.59 0 0 1-3.81-1.9 14.93 14.93 0 0 1-3.07-3 13.56 13.56 0 0 1-2.08-3.83H0V3.13h6.25V0h3.12v3.13h21.88V0h3.12v3.13h6.25Zm-37.5-18v6.26H37.5V6.25h-3.13v3.13h-3.12V6.25H9.37v3.13H6.25V6.25ZM18.87 37.5c-.05-.5-.07-1-.07-1.56a14.32 14.32 0 0 1 .58-4.08 13.46 13.46 0 0 1 1.78-3.73h-2.41V25h3.12v2.1a14 14 0 0 1 2.22-2.2 14.53 14.53 0 0 1 2.64-1.63 13.41 13.41 0 0 1 3-1 15 15 0 0 1 3.13-.36 13.72 13.72 0 0 1 4.69.8v-7H3.12V37.5Zm14 9.38a10.62 10.62 0 0 0 4.19-.88 11.05 11.05 0 0 0 5.81-5.79 11 11 0 0 0 .88-4.27 10.58 10.58 0 0 0-.88-4.25 11 11 0 0 0-5.81-5.81 11 11 0 0 0-4.25-.88 10.58 10.58 0 0 0-4.25.85 11.2 11.2 0 0 0-3.47 2.35 11 11 0 0 0-3.22 7.74 10.61 10.61 0 0 0 .85 4.25 11.16 11.16 0 0 0 2.35 3.46 11 11 0 0 0 7.74 3.23Zm1.56-12.5h4.69v3.12h-7.87v-9.37h3.12ZM6.25 25h3.12v3.13H6.25Zm6.25 0h3.12v3.13H12.5Zm0-6.25h3.12v3.13H12.5Zm-6.25 12.5h3.12v3.13H6.25Zm6.25 0h3.12v3.13H12.5Zm9.37-9.37h-3.12v-3.13h3.12Zm6.25 0H25v-3.13h3.12Zm6.25 0h-3.12v-3.13h3.12Z"/></svg>