<svg fill="#2029C5" id="Слой_1" data-name="Слой 1" xmlns="http://www.w3.org/2000/svg" viewBox="0 0 107.45 130.78"><defs><style>.cls-1{fill-rule:evenodd}</style></defs><g id="Слой_1-2" data-name="Слой_1"><g id="_2778570617648" data-name="2778570617648"><path class="cls-1" d="M70.35 136.43c8.38 0 24.46-10.61 30.88-17.06 14-14.05 23.26-32.8 23.14-55.63v-32c0-3.06-.75-3-3.29-4C113.94 25 72.54 5.65 70.87 5.65 69.42 5.65 23.1 26.47 19 28.33c-1.56.71-1.52.17-2.06 1.85l.31 42.61c2.55 25 18.21 48.05 40.74 59.31 2.24 1.1 9.75 4.33 12.36 4.33ZM28.67 36.91c0 28.83-2 46.92 13.54 67.23a60.69 60.69 0 0 0 17.1 15.2c10.24 6.18 12.06 6.27 22.29.2 5.56-3.29 4.78-3.21 9.38-6.77 8.53-6.63 15.55-19.86 18.78-29.67 4.08-12.38 2.8-32.78 2.8-46.19L70.87 18.67c-1.43 0-12.82 5.36-15.78 6.63L28.67 36.91Z" transform="translate(-16.97 -5.65)"/><path class="cls-1" d="M59 83.93 43.38 68.57l-8.58 8.34 23.44 23.7c2.5-.77 22-21.18 24.23-23.45 3.6-3.6 22.3-21.81 23.84-24.1L98.1 44.6Z" transform="translate(-16.97 -5.65)"/></g></g></svg>