<svg id="Слой_1" data-name="Слой 1" xmlns="http://www.w3.org/2000/svg" viewBox="0 0 128.77 116.78"><defs><style>.cls-1{fill-rule:evenodd}</style></defs><g id="Слой_1-2" data-name="Слой_1"><g id="_2782692778832" data-name="2782692778832"><path class="cls-1" d="M78 93.69a2 2 0 1 1 0 4c-2.48-.01-2.48-4 0-4ZM21.4 25.53c1-.26.39-.18 1.06-.94a7.23 7.23 0 0 1 5.38-2.17v-3.33h100.58v69.49h-61.5c-.51 0-.67.15-.67.67v12.87c0 .51.16.67.67.67h64.61a3.41 3.41 0 0 0 3.55-3.11V16a3.1 3.1 0 0 0-3.08-3.35H24.07c-3 0-2.67 3.94-2.67 5.11v7.77Z" transform="translate(-6.31 -12.65)"/><path class="cls-1" d="M59.95 55.73h49.51V29.97H59.95v25.76z"/><path class="cls-1" d="M10.75 34.18h47.07v68.39H10.75Zm13.76-4.44H9.18c-1.57 0-2.87.39-2.87 2.22v72.83A2.2 2.2 0 0 0 8.53 107H60a2.4 2.4 0 0 0 2.22-2.67V32.41c0-3.62-3.3-2.67-7.77-2.67h-10.4a4.12 4.12 0 0 0-1-2.29 3.25 3.25 0 0 0-2.51-1H28.06a3.42 3.42 0 0 0-3.55 3.29Zm36.41-4.21c1.15.72 2.3.5 3.61 1.93 2.46 2.69 1.72 6.09 1.72 10.94h49.51V26c0-.51-.15-.67-.66-.67-5.72-.03-52.73-.33-54.18.2ZM69.58 123H50.93c-3.58 0-3.83 6.44 0 6.44h54.62c3.63 0 3.53-6.44-.22-6.44H86.9v-15.55c0-.51-.15-.67-.67-.67H69.58Z" transform="translate(-6.31 -12.65)"/><path class="cls-1" d="M27.84 50c0 1.51.53 2.44 2.45 2.44h21.09c2.89 0 2.87-4.44.22-4.44H29.84a2 2 0 0 0-2 2Zm0 12.83c0 1.49.75 2.44 2.22 2.44h21.32c2.7 0 3.08-4.44.22-4.44H29.84a2 2 0 0 0-2 2Zm0 12.43c0 1.25.12 2.88 2.22 2.88h20.87c3.61 0 3.29-4.44.67-4.44H29.84c-.84 0-2 .85-2 1.56Zm-8.43-24.42c-.63-.17-.61-.34-1-.82a3.55 3.55 0 0 0-.82-1c-1.06.25-1.6.64-2.66.89.24.92.34.61 1 1.18l2.56 2.31c.61.61.54.87 1.5 1 .25-1.07 5.43-8.73 6.22-10.21h-4a19.14 19.14 0 0 1-1.41 3.25Zm0 25.75c-1-.26-.88-1.11-1.78-1.78-1.06.25-1.6.64-2.66.89.21.8 4.22 4.09 4.88 4.44l6.44-10.21h-4l-1.4 3.26c-.34.67-.45 1-.75 1.69a7.79 7.79 0 0 0-.73 1.71Zm0-12.88c-1-.26-.88-1.11-1.78-1.77-1.06.25-1.6.64-2.66.89.21.79 4.22 4.09 4.88 4.44l6.44-10.22h-4c-.29 1.26-2.64 5.61-2.88 6.66Zm66.16 12.21c0 4.08 6.66 4.38 6.66 0s-6.66-4.35-6.66 0Zm-10.66 0a3.21 3.21 0 0 0 2.13 3 3.28 3.28 0 1 0-2.13-3Zm-8.66-2.66v5.11c0 1.45 4.44 1.29 4.44-2.89 0-2.64-4.44-3.8-4.44-2.22Z" transform="translate(-6.31 -12.65)"/></g></g></svg>